<?xml version="1.0" encoding="utf-8"?>
<!-- Generator: Adobe Illustrator 26.0.3, SVG Export Plug-In . SVG Version: 6.00 Build 0)  -->
<svg version="1.1" id="Layer_1" xmlns="http://www.w3.org/2000/svg" xmlns:xlink="http://www.w3.org/1999/xlink" x="0px" y="0px"
	 viewBox="0 0 4000 4000" style="enable-background:new 0 0 4000 4000;" xml:space="preserve">
<style type="text/css">
	.st0{display:none;}
	.st1{display:inline;}
	.st2{fill:#FEEBCD;}
	.st3{opacity:0.2;}
	.st4{fill:#000072;}
	.st5{fill:#FFC76C;}
	.st6{opacity:0.5;}
	.st7{fill:#FFFFFF;}
	.st8{opacity:0.3;}
	.st9{fill:#FFA1A8;}
	.st10{fill:#6B184E;}
	.st11{opacity:0.25;}
	.st12{fill:#FF8392;}
	.st13{fill:#FF7687;}
	.st14{opacity:0.35;}
	.st15{fill:#F27E80;}
	.st16{fill:#FF0068;}
</style>
<g class="st0">
	<g class="st1">
		<rect x="-2105.36" y="570.3" class="st2" width="4000" height="4000"/>
	</g>
</g>
<g>
	<g class="st3">
		<g>
			<ellipse class="st4" cx="1818.26" cy="3396.49" rx="1045.24" ry="126.58"/>
		</g>
	</g>
	<g>
		<g>
			<g>
				<g>
					<path class="st5" d="M2324.32,2867.07c0,0,290.21-12.15,278.38-173.34c-15.77-214.85-245.74-331.53-238.14-588.67
						c13-439.72,826.29-459.34,838.6,77.5c3.44,149.85-69.32,199.59-135.86,202c-104.01,3.76-158.47-76.5-171.92-181.07
						c-24.6-191.19-292.27-182.11-309.11,0.44c-13.67,148.15,334.03,382.18,206.63,645.89
						c-87.93,182.02-297.51,219.42-428.65,210.41C2337.91,3058.42,2324.32,2867.07,2324.32,2867.07z"/>
				</g>
			</g>
			<g class="st6">
				<g>
					<path class="st7" d="M3202.32,2220.13c-30.79-510.56-805.49-492.98-836.89-73.99c-0.99-13.26-1.28-26.95-0.85-41.07
						c12.98-439.74,826.28-459.35,838.6,77.5C3203.45,2195.88,3203.17,2208.39,3202.32,2220.13z"/>
				</g>
			</g>
			<g class="st8">
				<g>
					<path class="st4" d="M2330.46,2932.13c6.42,55.68,17.78,127.04,33.81,128.12c131.13,8.98,340.67-28.41,428.62-210.45
						c46.87-96.99,29.43-189.94-10.62-276.13c4.55,47.9,22.99,102.14-12.1,174.33C2682.58,2928.16,2461.76,2940.2,2330.46,2932.13z"
						/>
				</g>
			</g>
			<g class="st8">
				<g>
					<path class="st4" d="M2895.38,2203.51c13.47,104.54,67.9,184.82,171.93,181.02c46.19-1.65,95.45-26.19,120.05-91.25
						c-24.03,18.98-52.1,27.39-79.2,28.35c-109.71,3.98-141.92-74.16-153.51-184.79c-34.09-325.36-589.88-131.28-329.97,183.39
						c8.66,10.49-24.01-42.96-35.02-78.54c-3.24-13.12-4.49-25.74-3.41-37.78C2603.12,2021.36,2870.78,2012.27,2895.38,2203.51z"/>
				</g>
			</g>
			<g>
				<g>
					<path class="st4" d="M2401.15,3080.42c-14.75,0-27.64-0.56-38.21-1.28c-20.63-1.42-34.27-19.93-47.3-113.55
						c-6.7-48.14-10.08-95.2-10.22-97.17l-1.38-19.44l19.48-0.83c1.7-0.07,170.57-8.11,235.97-81.57
						c18.37-20.64,26.33-44.01,24.31-71.46c-6.85-93.35-56.87-168.01-109.81-247.06c-65.23-97.37-132.67-198.06-128.37-343.55
						c6.75-228.15,217.16-346.83,421.91-346.17c116.5,0.39,225.48,37.26,306.87,103.82c93.58,76.54,144.66,187.18,147.7,319.97
						c3.64,158.98-77.22,218.59-154.12,221.37c-103.39,3.88-175-70.12-191.4-197.58c-11.16-86.76-77.48-124.35-138.58-123.4
						c-60.58,1.09-125.17,39.59-132.88,123.17c-4.56,49.4,42.13,117.77,91.55,190.15c87.82,128.61,197.12,288.68,113.27,462.24
						c-41.58,86.06-111.67,148.73-208.32,186.26C2525.91,3073.72,2452.37,3080.42,2401.15,3080.42z M2371.08,3041.67
						c61.68,3.39,306.58,3.13,404.75-200.09c74.31-153.82-23.85-297.56-110.45-424.38c-55.7-81.57-103.81-152.02-97.99-215.01
						c9.81-106.34,94.97-156.23,169.93-157.57c77.71-1.26,162.69,46.44,176.84,156.46c6.55,50.9,34.57,168.76,152.44,164.55
						c36.59-1.32,121.29-21.76,117.6-182.63c-6.11-266.24-213.74-386.09-416.81-386.76c-0.53,0-1.08,0-1.61,0
						c-185.71,0-376.28,106.05-382.29,309.39c-3.94,133.37,60.07,228.93,121.98,321.34c53.36,79.66,108.54,162.03,116.12,265.37
						c2.77,37.7-8.62,71.17-33.85,99.48c-62.24,69.85-193.21,88.23-243.05,92.78C2350.4,2951.57,2361.34,3023.55,2371.08,3041.67z"
						/>
				</g>
			</g>
		</g>
		<g>
			<g>
				<path class="st5" d="M2555.9,3112.69H1081.92c19.28-105.4,47.42-213.12,79.49-317.24c48.65-157.93,106.54-307.29,156.89-426.71
					c1.14-2.61,2.23-5.21,3.27-7.77c2.27-5.4,4.64-10.8,6.87-16.06c4.97-11.65,9.85-23.02,14.69-34.01
					c6.68-15.4,13.17-30.08,19.42-44.05c4.64-10.33,9.14-20.32,13.5-29.89c5.49-12.13,10.75-23.54,15.73-34.2
					c29.56-63.9,48.6-101.28,48.6-101.28h757.07c0,0,0.24,0.47,0.71,1.47c1.61,3.13,5.78,11.42,12.03,24.21c0,0,0,0,0,0.05
					c10.85,22.17,28,57.98,49.17,104.36c0.81,1.8,1.61,3.6,2.46,5.45c3.93,8.72,8.05,17.76,12.27,27.19
					c6.35,14.26,13.03,29.27,19.9,45c4.69,10.71,9.47,21.74,14.31,33.11c0.99,2.27,1.94,4.5,2.94,6.77
					c1.28,3.13,2.65,6.35,4.03,9.57c44.53,105.02,95.45,234.34,140.83,372.76c6.92,21.17,13.74,42.54,20.37,64.04
					C2508.53,2899.57,2536.62,3007.29,2555.9,3112.69z"/>
			</g>
		</g>
		<g>
			<g>
				<ellipse class="st7" cx="1789.35" cy="2740.32" rx="311.29" ry="293.76"/>
			</g>
		</g>
		<g>
			<g>
				<path class="st4" d="M2555.93,3113.1H1081.94c-5.62,0-10.96-2.5-14.56-6.82c-3.6-4.32-5.1-10.01-4.08-15.55
					c87.64-477.92,357.52-1011.07,360.24-1016.41c4.75-9.33,16.17-13.02,25.48-8.28c9.33,4.75,13.03,16.16,8.28,25.49
					c-2.65,5.2-261.75,517.12-352.5,983.67h1428.27c-90.75-466.55-349.85-978.47-352.5-983.67c-4.75-9.33-1.04-20.74,8.28-25.49
					c9.33-4.74,20.73-1.04,25.48,8.28c2.72,5.33,272.6,538.48,360.24,1016.41c1.01,5.53-0.48,11.23-4.08,15.55
					C2566.89,3110.6,2561.55,3113.1,2555.93,3113.1z"/>
			</g>
		</g>
		<g>
			<g>
				<path class="st5" d="M1350.55,2960.4c-63.21-179.08-334.78-226.49-405.89,64.52c-54.49,223,118.51,274.33,118.51,274.33h1452.36
					c0,0,173-51.33,118.51-274.33c-71.11-291.01-342.68-243.61-405.89-64.52"/>
			</g>
		</g>
		<g class="st6">
			<g>
				<path class="st7" d="M1350.56,2960.39h0.47v37.66h-0.47c-63.24-179.06-334.81-226.48-405.92,64.52
					c-5.49,22.6-8.72,43.39-9.95,62.62c-2.04-28.75,0.62-62.01,9.95-100.28C1015.75,2733.91,1287.32,2781.33,1350.56,2960.39z"/>
			</g>
		</g>
		<g class="st6">
			<g>
				<path class="st7" d="M2644.01,3125.19c-1.23-19.23-4.45-40.03-9.95-62.62c-66.34-271.56-307.32-248.4-390.58-98.55
					c-4.09,7.36-15.24,4.56-15.24-3.86l0,0c63.38-178.87,334.77-226.1,405.82,64.76
					C2643.39,3063.19,2646.05,3096.44,2644.01,3125.19z"/>
			</g>
		</g>
		<g>
			<g>
				<path class="st4" d="M1341.61,2963.56c-59.28-113.82-193.76-175.73-298.68-80.99c-50.8,49.25-76.05,120.94-85.7,190.37
					c-12.27,88.74,23.36,172.66,108.99,207.29c0,0,2.33,0.86,2.34,0.86l-5.39-0.78c-2.48-0.18,1473.53,0.22,1449.32-0.08
					c30.39-12.18,57.79-33.22,77.08-59.58c41.97-56.74,40.13-134.65,21.45-200.47c-18.17-67.31-52.87-134.51-116.63-166.93
					c-99.23-50.39-213.01,15.8-257.29,110.3c-2.29,4.85-8.14,6.88-12.93,4.45c-4.02-2.04-5.97-6.55-4.94-10.75
					c9.45-38.54,30.64-75.2,60.84-102.89c101.24-92.74,249.68-70.18,323.69,44.94c33.43,51.41,51.29,108.89,59.3,168.69
					c11.58,82.85-14.9,170.69-85.84,220.5c-15.88,11.56-33.36,20.89-51.88,27.5c-2.73,0.9-6.45,2.32-9.58,2.22
					c0.11,0.08-1452.59-0.07-1452.59,0c-3.4,0.14-6.94-1.28-9.81-2.22c-18.52-6.61-36-15.95-51.89-27.49
					c-90.91-64.8-103.34-178.76-74.33-279.22c15.22-57.63,42.5-115.6,87.46-157.22c62.68-59.36,157.23-72.11,233.75-33.2
					c18.58,9.13,35.81,20.82,51.04,34.65c30.61,27.49,51.94,64.71,60.1,103.74C1361.71,2968.19,1346.59,2973.24,1341.61,2963.56
					L1341.61,2963.56z"/>
			</g>
		</g>
		<g>
			<g>
				<path class="st5" d="M2789.67,3097.48c-19.9,143.72-96.78,258.83-188.58,287.06c-9.33,2.89-18.52,5.21-27.52,7.01
					c-70.49,14.4-130.84-0.19-162.39-8.24c-62.72-16.01-107.67-27.1-173.23-34.39c-82.42-9.24-197.58-12.55-421.93-12.55
					c-224.3,0-339.46,3.32-421.88,12.55c-2.04,0.24-4.07,0.47-6.06,0.71c-2.04,0.19-4.03,0.43-6.02,0.71
					c-15.77,1.94-30.41,4.12-44.53,6.58c-1.75,0.28-3.51,0.57-5.21,0.9c-7.01,1.28-13.88,2.56-20.75,3.98
					c-1.71,0.33-3.41,0.66-5.12,1.04c-1.71,0.33-3.41,0.71-5.12,1.09c-11.94,2.56-23.83,5.31-36.14,8.29
					c-1.75,0.43-3.51,0.85-5.31,1.28c-12.41,3.03-25.25,6.3-38.99,9.81c-30.79,7.86-89.15,21.98-157.51,9.24
					c-1.09-0.24-2.18-0.43-3.32-0.66c-9.52-1.89-19.23-4.31-29.09-7.34c-30.13-9.28-58.64-27.9-84.08-53.77
					c-30.27-30.84-56.18-72.05-75.13-120.13c-3.08-7.67-5.92-15.54-8.57-23.59c-1.33-3.98-2.61-8.05-3.88-12.13
					c-2.46-8.19-4.78-16.53-6.87-25.01c-4.17-16.96-7.58-34.49-10.04-52.44c-3.79-27.48-5.21-61.77,1.28-93.08
					c0.9-4.45,1.99-8.81,3.27-13.07c0.62-2.13,1.28-4.31,1.99-6.39c1.42-4.17,3.03-8.29,4.88-12.22c1.85-3.98,3.84-7.82,6.06-11.46
					c2.23-3.69,4.69-7.2,7.34-10.56c2.08-2.61,4.22-4.97,6.35-7.11c26.39-27.14,54.67-23.16,54.67-23.16s0.33-0.66,0.95-1.89
					c0.33-0.57,0.71-1.33,1.18-2.18c1.66-2.94,4.26-7.3,7.72-12.27s7.86-10.52,13.03-15.87c0.71-0.76,1.47-1.52,2.27-2.27
					c8.48-8.24,19-15.77,31.26-19.42c50.92-15.11,81.34,8.43,90.57,17.34c0.28,0.28,0.57,0.52,0.8,0.81c0.47,0.47,0.9,0.9,1.23,1.23
					c0.28,0.33,0.52,0.62,0.71,0.81c0.14,0.19,0.24,0.28,0.24,0.28s34.49-26.39,76.93-17.53c1.33,0.28,2.6,0.57,3.88,0.9
					c0.9,0.19,1.8,0.43,2.7,0.71c0.28,0.05,0.52,0.14,0.8,0.24c1.33,0.33,2.61,0.71,3.88,1.14c1.47,0.47,2.94,0.99,4.36,1.52
					c0.19,0.09,0.38,0.14,0.57,0.24c0.71,0.24,1.42,0.52,2.13,0.85c3.17,1.23,6.3,2.7,9.33,4.26c1.61,0.85,3.22,1.71,4.78,2.65
					c1.56,0.9,3.13,1.85,4.64,2.84c0.38,0.24,0.71,0.47,1.04,0.66c1.28,0.85,2.56,1.75,3.79,2.65c3.08,2.23,6.11,4.59,9.05,7.15
					c0.62,0.47,1.18,0.99,1.75,1.52c1.18,1.04,2.32,2.13,3.46,3.22c2.56,2.51,5.12,5.12,7.53,7.86c0.71,0.76,1.37,1.52,2.04,2.32
					c2.04,2.32,4.03,4.78,5.92,7.3c1.28,1.66,2.51,3.32,3.74,5.07c2.23,3.13,4.41,6.4,6.49,9.76c1.42,2.27,2.8,4.55,4.12,6.92
					c1.23,2.18,2.46,4.41,3.7,6.68c0.19,0.28,0.33,0.62,0.47,0.9c2.46,4.78,4.88,9.76,7.2,14.87v0.05
					c2.32,5.31,4.55,10.8,6.68,16.44c1.04,2.84,2.08,5.73,3.08,8.67c0.99,2.89,1.94,5.83,2.89,8.76c0.05,0.05,0.05,0.09,0.05,0.14
					c3.51,11.32,6.63,23.26,9.33,35.72c0.05,0.19,0.09,0.43,0.14,0.66c0.33,1.42,0.62,2.84,0.9,4.26c0.28,1.37,0.52,2.75,0.8,4.12
					c2.89,14.68,5.16,30.08,6.87,46.14h1065.46c1.7-16.15,4.03-31.69,6.96-46.52c18.28-93.51,59.73-157.89,121.22-170.68
					c42.44-8.86,76.93,17.53,76.93,17.53s31.6-38.84,93.56-20.46c35.72,10.61,56.42,53.91,56.42,53.91s32.97-4.64,60.97,30.27
					C2795.78,2989.29,2795.88,3052.48,2789.67,3097.48z"/>
			</g>
		</g>
		<g>
			<g>
				<path class="st7" d="M2789.67,3097.48c-19.9,143.72-96.78,258.83-188.58,287.06c-9.33,2.89-18.52,5.21-27.52,7.01
					c-70.49,14.4-130.84-0.19-162.39-8.24c-62.72-16.01-107.67-27.1-173.23-34.39c-82.42-9.24-197.58-12.55-421.93-12.55
					c-224.3,0-339.46,3.32-421.88,12.55c-2.04,0.24-4.07,0.47-6.06,0.71c-2.04,0.24-4.03,0.47-6.02,0.71
					c-15.77,1.94-30.41,4.12-44.53,6.58c-1.75,0.28-3.46,0.57-5.21,0.9c-7.01,1.28-13.88,2.56-20.75,3.98
					c-1.71,0.33-3.41,0.66-5.12,1.04c-1.71,0.38-3.41,0.71-5.12,1.09c-11.94,2.56-23.83,5.31-36.14,8.29
					c-1.75,0.43-3.51,0.85-5.31,1.28c-12.41,3.03-25.25,6.3-38.99,9.81c-30.79,7.86-89.15,21.98-157.51,9.24c0-0.05,0-0.05,0-0.05
					c-1.09-0.19-2.18-0.38-3.32-0.62c-9.52-1.89-19.23-4.31-29.09-7.34c-30.13-9.28-58.64-27.9-84.08-53.77
					c-30.27-30.89-56.13-72.05-75.13-120.13c-3.03-7.67-5.87-15.54-8.57-23.59c-1.33-3.98-2.61-8.05-3.88-12.13
					c-2.46-8.19-4.78-16.53-6.87-25.01c-4.17-16.96-7.58-34.49-10.04-52.44c-3.79-27.48-5.21-61.77,1.28-93.08
					c0.9-4.45,1.99-8.81,3.27-13.07c0.62-2.13,1.28-4.31,1.99-6.39c1.47-4.22,3.08-8.29,4.88-12.22c1.85-3.98,3.84-7.82,6.06-11.46
					c2.27-3.69,4.69-7.2,7.39-10.56c2.08-2.61,4.17-4.97,6.3-7.11c26.39-27.14,54.67-23.16,54.67-23.16s0.33-0.66,0.95-1.89
					c0.33-0.57,0.71-1.33,1.18-2.18c1.66-2.94,4.26-7.3,7.72-12.27c3.51-4.97,7.86-10.52,13.03-15.87c0.71-0.76,1.47-1.52,2.27-2.27
					c8.48-8.24,19-15.77,31.26-19.42c50.92-15.11,81.34,8.43,90.57,17.34c0.28,0.28,0.57,0.52,0.8,0.81c0.47,0.47,0.9,0.9,1.23,1.23
					c0.28,0.33,0.52,0.62,0.71,0.81c0.14,0.19,0.24,0.28,0.24,0.28s34.49-26.39,76.93-17.53c1.33,0.28,2.6,0.57,3.88,0.9
					c0.9,0.19,1.8,0.43,2.7,0.71c0.28,0.05,0.52,0.14,0.8,0.24c1.33,0.33,2.61,0.71,3.88,1.14c1.47,0.47,2.94,0.99,4.36,1.52
					c0.19,0.09,0.38,0.14,0.57,0.24c0.71,0.24,1.42,0.52,2.13,0.85c3.17,1.23,6.3,2.7,9.33,4.26c1.61,0.85,3.22,1.71,4.78,2.65
					c1.56,0.9,3.13,1.85,4.64,2.84c0.38,0.24,0.71,0.47,1.04,0.66c1.28,0.85,2.56,1.75,3.79,2.65c3.08,2.23,6.11,4.59,9.05,7.15
					c0.62,0.47,1.18,0.99,1.75,1.52c1.18,1.04,2.32,2.13,3.46,3.22c2.56,2.51,5.12,5.12,7.53,7.86c0.71,0.76,1.37,1.52,2.04,2.32
					c2.04,2.32,4.03,4.78,5.92,7.3c1.28,1.66,2.51,3.32,3.74,5.07c2.27,3.13,4.41,6.4,6.49,9.76c1.47,2.27,2.84,4.55,4.12,6.92
					c1.23,2.18,2.46,4.41,3.7,6.68c0.19,0.28,0.33,0.62,0.47,0.9c2.56,4.78,4.93,9.76,7.2,14.87v0.05
					c2.37,5.31,4.59,10.75,6.68,16.44c1.04,2.84,2.08,5.73,3.08,8.67c0.99,2.89,1.94,5.83,2.89,8.76c0.05,0.05,0.05,0.09,0.05,0.14
					c3.55,11.32,6.68,23.21,9.33,35.72c0.05,0.19,0.09,0.43,0.14,0.66c0.33,1.42,0.62,2.84,0.9,4.26c0.28,1.23,0.52,2.51,0.76,3.74
					c0,0.14,0,0.24,0.05,0.38c1.8,21.41,3.22,44.62,4.26,69.82c0.05,1.09,0.09,2.18,0.14,3.27c3.08,64.99,65.94,110.14,128.66,92.7
					c0.33-0.09,0.65-0.18,0.98-0.27c45.18-12.57,68.43-62.43,48.47-104.87c-22.62-48.1-35.03-101.95-34.46-158.78
					c1.94-195.33,160.19-356.15,355.46-361.06c205.81-5.18,374.31,160.13,374.31,364.78c0,50.95-10.42,99.43-29.27,143.45
					c-18.53,43.3,6,92.86,51.85,103.59c15.68,3.67,31.08,7.57,46.2,11.69c62.67,17.1,125.48-28.04,128.33-92.94
					c0-0.52,0.05-1.04,0.05-1.56c1.04-25.34,2.46-48.7,4.31-70.2c18.28-93.51,59.73-157.89,121.22-170.68
					c42.44-8.86,76.93,17.53,76.93,17.53s31.6-38.84,93.56-20.46c35.72,10.61,56.42,53.91,56.42,53.91s32.97-4.64,60.97,30.27
					C2795.78,2989.29,2795.88,3052.48,2789.67,3097.48z"/>
			</g>
		</g>
		<g class="st8">
			<g>
				<path class="st4" d="M2789.67,3097.51c-19.86,143.69-96.75,258.78-188.58,287.09c-82.05,25.2-154.32,7.83-189.91-1.28
					c-141.63-36.2-192.42-46.95-595.14-46.95s-453.51,10.75-595.14,46.95c-35.59,9.11-107.92,26.48-189.91,1.28
					c-91.83-28.3-168.72-143.39-188.58-287.09c-3.34-24.35-4.86-54.05-0.61-82.23c0.18,1.7,0.36,3.4,0.61,5.04
					c19.86,143.69,96.75,258.84,188.58,287.08c81.99,25.27,154.32,7.83,189.91-1.28c141.63-36.2,192.42-67.64,595.14-67.64
					s453.51,31.44,595.14,67.64c35.59,9.11,107.86,26.54,189.91,1.28c91.83-28.24,168.72-143.39,188.58-287.08
					c0.24-1.64,0.43-3.34,0.61-5.04C2794.53,3043.46,2793.01,3073.15,2789.67,3097.51z"/>
			</g>
		</g>
		<g>
			<g>
				<path class="st4" d="M2339.35,3085.63c-0.05-81.5,23.06-178.97,100.19-222.59c20.73-11.08,45.28-16.87,68.67-13.7
					c19.64,2.43,37.79,9.43,54.19,20.13c-0.1-0.01,1.86,1.12-1.03-0.58c-5.9-3.22-13.92-2.3-18.9,2.17
					c25.9-27.28,74.89-36.67,115.53-21.41c28.04,10.59,48.53,34.72,62.36,60.12c-2.56-5.5-10.59-9.78-16.01-9.03
					c38.5-1.35,70.18,23.77,87.29,54.87c35.8,69.16,19.93,154.83-0.05,226.24c-26.6,84.17-74.29,168.85-156.43,210.79
					c-52.99,25.37-114.48,29.46-172.03,22.03c-59.51-9.05-116.42-29.18-175.09-38.21c-154.64-23.48-315.16-17.88-472.01-19.86
					c-156.88,1.72-317.38-3.99-472.1,19.31c-58.68,8.96-115.59,29.03-175.09,38.02c-52.19,6.89-106.86,3.53-156.42-15.39
					c-104.19-43.2-160.3-157.74-182.63-261.87c-13.44-65.74-20.17-147.58,26.38-202.49c16.49-19.28,43.36-34.34,71.53-33
					c0.15-0.08-3.93-0.02-5.56,0.66c-4.34,1.27-7.96,4.27-10.03,8.13c15.02-27.85,38.83-54.68,70.89-62.7
					c36.35-10.47,79.13-3.61,106.9,24.42c-0.25-0.22,1.85,1.8-0.49-0.43c-1.56-1.35-3.45-2.46-5.55-3.16
					c-4.16-1.45-9.18-1.05-13.03,1.02c-2.84,1.67-0.91,0.55-1.01,0.56l0.96-0.65c35.91-23.48,79.31-27.74,118.22-8.7
					c79.48,41.3,101.47,143.39,103.71,225.27c0.46,11.63-16.76,13.51-18.84,2.01c-7.91-38.37-17.9-76-33.25-110.28
					c-26.13-60.79-84.84-117.19-149.05-76.58c0,0-0.59,0.38-0.59,0.38c-0.61,0.34,0.82-0.41-2.57,1.56
					c-4.94,2.65-11.31,3.17-16.64,1.31c-3.98-1.26-7.06-3.78-9.83-6.67c-19.12-18.2-49.81-20.55-74.5-11.66
					c-16.72,6.47-29.06,21.44-38.5,36.68c-3.46,6.8-7.92,14.1-16.03,16.11c-2.22,0.87-6.93,0.95-7.4,0.83
					c-7.78-0.23-15.54,1.96-22.93,5.89c-56.96,34.05-46.77,127.16-34.99,183.52c19.24,88.79,63.94,184.72,147.02,228.01
					c64.15,29.69,137.9,24.75,204.98,6.53c193.89-55.26,397.57-44.29,596.45-47.12c198.89,2.51,402.65-8.57,596.61,46.47
					c63.1,17.25,130.65,21.89,192.43-1.35c89.74-37.51,139.06-141.58,158.73-232.68c8.7-40.29,13.37-84.02,4.29-124.19
					c-6.72-31.41-27.78-64.04-61.52-64.64c-0.47,0.12-5.28,0.04-7.55-0.85c-5.65-1.65-10.41-5.58-13.11-10.64
					c-1.16-2.24-2.04-3.74-3.18-5.67c-9.82-15.9-22.81-31.46-40.63-37.42c-23.31-7.44-51.32-5.4-69.81,10.63
					c-0.89,0.79-2.02,1.73-2.84,2.6c-6.35,7.06-17.57,9.15-25.94,4.55c-18.47-12.44-41.28-19.51-63.23-14.71
					c-79.24,18.85-104.59,130.05-122.1,199.38C2355.41,3098.66,2339.6,3096.72,2339.35,3085.63L2339.35,3085.63z"/>
			</g>
		</g>
		<g>
			<g>
				
					<ellipse transform="matrix(0.9985 -0.0554 0.0554 0.9985 -173.9438 63.5255)" class="st9" cx="1059.39" cy="3170.69" rx="91.79" ry="105.67"/>
			</g>
		</g>
		<g>
			<g>
				
					<ellipse transform="matrix(0.9898 -0.1427 0.1427 0.9898 -428.3805 164.4175)" class="st9" cx="932.41" cy="3069.61" rx="35.01" ry="40.85"/>
			</g>
		</g>
		<g>
			<g>
				
					<ellipse transform="matrix(0.9898 -0.1427 0.1427 0.9898 -416.6932 176.7429)" class="st9" cx="1024.24" cy="2994.34" rx="35.01" ry="40.85"/>
			</g>
		</g>
		<g>
			<g>
				
					<ellipse transform="matrix(0.9898 -0.1427 0.1427 0.9898 -418.013 193.1976)" class="st9" cx="1138.33" cy="3011.77" rx="35.01" ry="40.85"/>
			</g>
		</g>
		<g>
			<g>
				
					<ellipse transform="matrix(0.0554 -0.9985 0.9985 0.0554 -739.8293 5559.375)" class="st9" cx="2568.2" cy="3170.69" rx="105.67" ry="91.79"/>
			</g>
		</g>
		<g>
			<g>
				
					<ellipse transform="matrix(0.1427 -0.9898 0.9898 0.1427 -727.5394 5299.2993)" class="st9" cx="2695.17" cy="3069.61" rx="40.85" ry="35.01"/>
			</g>
		</g>
		<g>
			<g>
				
					<ellipse transform="matrix(0.1427 -0.9898 0.9898 0.1427 -731.7594 5143.8911)" class="st9" cx="2603.35" cy="2994.34" rx="40.85" ry="35.01"/>
			</g>
		</g>
		<g>
			<g>
				
					<ellipse transform="matrix(0.1427 -0.9898 0.9898 0.1427 -846.8287 5045.9092)" class="st9" cx="2489.25" cy="3011.77" rx="40.85" ry="35.01"/>
			</g>
		</g>
		<g class="st8">
			<g>
				<g>
					<path class="st10" d="M1024.86,2006.82c0.19,0.38,0.42,0.7,0.61,1.08l-0.8-1.31
						C1024.77,2006.68,1024.81,2006.73,1024.86,2006.82z"/>
				</g>
			</g>
			<g>
				<g>
					<path class="st10" d="M1025.47,2007.9l23.1,37.07C1040.6,2032.97,1032.82,2020.69,1025.47,2007.9z"/>
				</g>
			</g>
		</g>
		<g class="st8">
			<g>
				<g>
					<path class="st10" d="M1024.82,1994.89c0.14,0.15,0.28,0.31,0.38,0.41c0.19,0.26,0.37,0.51,0.56,0.77L1024.82,1994.89z"/>
				</g>
			</g>
			<g>
				<g>
					<path class="st10" d="M1048.16,2023.52c-7.73-8.86-15.23-17.98-22.4-27.45L1048.16,2023.52z"/>
				</g>
			</g>
			<g>
				<g>
					<path class="st10" d="M2584.99,2023.52l22.35-27.3C2600.22,2005.65,2592.77,2014.71,2584.99,2023.52z"/>
				</g>
			</g>
		</g>
		<g>
			<g>
				<path class="st7" d="M1048.59,2033.05c-7.77-8.93-15.35-18.15-22.63-27.65L1048.59,2033.05z"/>
			</g>
		</g>
		<g>
			<g>
				<path class="st7" d="M2583.5,2033.05l22.54-27.6C2598.84,2014.96,2591.27,2024.12,2583.5,2033.05z"/>
			</g>
		</g>
		<g class="st11">
			<g>
				<path class="st10" d="M2606.46,1984.16c-0.14,0.29-0.29,0.58-0.43,0.87c0.15-0.24,0.24-0.53,0.34-0.77
					C2606.41,1984.21,2606.46,1984.21,2606.46,1984.16z"/>
			</g>
		</g>
		<g class="st8">
			<g>
				<path class="st4" d="M2293.99,2309.19c-311.37,103.03-640.16,103.31-950.87,1.71c6.68-15.4,13.17-30.08,19.42-44.05
					c4.64-10.33,9.14-20.32,13.5-29.89c5.49-12.13,10.75-23.54,15.73-34.2c29.56-63.9,48.6-101.28,48.6-101.28h757.07
					c0,0,0.24,0.47,0.71,1.47c1.61,3.13,5.78,11.42,12.03,24.21c0,0,0,0,0,0.05c10.85,22.17,28,57.98,49.17,104.36
					c0.81,1.8,1.61,3.6,2.46,5.45c3.93,8.72,8.05,17.76,12.27,27.19C2280.44,2278.45,2287.12,2293.46,2293.99,2309.19z"/>
			</g>
		</g>
		<g>
			<g>
				<path class="st5" d="M2794.6,1844.53c-4.31,37.8-81.43,1.99-98.25-6.25c-1.33-0.66-2.8,0.71-2.42,2.37
					c0.99,4.07,2.98,11.37,6.92,22.03c2.37,6.35,5.35,13.83,9.28,22.6c13.08,28.94,23.69,51.4,17.76,66.6
					c-6.3,16.11-32.5,22.36-65.18,18.66c-12.65-1.42-25.96,5.78-38.75,16.77c-5.64,4.88-11.23,10.52-16.58,16.44l-0.05,0.05
					l-0.19,0.14l-1.14,1.52c0.28-0.43,0.62-0.85,0.9-1.28c-4.59,5.12-9.05,10.47-13.31,15.77c-3.6,4.55-7.11,9-10.33,13.31
					c-1.37,1.61-2.8,3.17-4.31,4.74c-28.14,31.6-59.83,59.73-94.22,84.75c-46.57,32.73-97.92,58.55-152.06,78.78v-0.38
					c0,0-74.28,27.38-184.13,52.53c0,0-98.15,20.99-187.87,32.59c0,0-68.64,8.15-144.15,8.15c-75.41,0-145.24-8.15-145.24-8.15
					c-89.67-11.61-187.87-32.59-187.87-32.59c-109.8-25.15-184.13-52.53-184.13-52.53v0.38c-54.14-20.23-105.49-46.04-152.06-78.78
					c-33.02-24.02-63.48-50.92-90.9-81.05c-2.61-2.79-5.12-5.59-7.58-8.43c-3.79-5.02-7.86-10.23-12.13-15.49
					c-3.79-4.69-7.72-9.33-11.75-13.83c0.33,0.47,0.71,0.99,1.04,1.47l-1.28-1.66c0.05,0.05,0.14,0.09,0.19,0.14
					c-4.55-5.02-9.28-9.85-14.07-14.16c-13.6-12.32-27.9-20.75-41.45-19.18c-32.64,3.7-58.88-2.56-65.18-18.66
					c-5.92-15.21,4.74-37.66,17.72-66.6c2.65-5.97,4.93-11.37,6.87-16.2c5.64-14.16,8.24-23.59,9.38-28.42
					c0.33-1.66-1.04-3.03-2.42-2.37c-16.77,8.24-93.89,44.05-98.25,6.25c-0.76-6.49,1.94-17.01,6.44-30.41
					c10-29.84,28.75-73.9,36.9-118.71c5.54-30.27,10.42-56.65,14.73-79.58c6.02-31.74,10.89-56.84,14.83-76.65
					c10.9-54.76,14.69-68.83,14.69-68.83c0.24-1.28,33.49-136,83.18-235.19c-49.64-132.35-82.19-518.28,0.95-598.86
					c66.7-64.71,317.48,71.1,411.6,166.08c27.33-11.42,57.56-20.98,88.82-28.99c39.79-10.14,81.19-17.76,120.32-23.45
					c48.08-7.01,92.7-11.04,126.57-13.31c29.61-1.94,51.07-2.56,59.54-2.56c8.38,0,29.61,0.57,58.93,2.51
					c9.33,0.66,19.56,1.42,30.41,2.32c28.56,2.42,61.77,5.97,96.78,11.08c39.13,5.64,80.53,13.26,120.32,23.45
					c31.26,7.96,61.49,17.53,88.82,28.94c94.08-94.98,344.9-230.79,411.65-166.08c83.09,80.58,50.54,466.5,0.9,598.86
					c31.41,62.67,56.28,139.55,70.3,187.97c8.19,28.23,12.79,46.75,12.88,47.23c0,0,3.79,14.16,14.73,69.26
					c3.88,19.37,8.62,43.91,14.45,74.66c4.36,23.26,9.38,50.17,15.02,81.15c7.91,43.3,25.67,85.93,35.91,115.73v0.05
					C2792.18,1825.97,2795.41,1837.57,2794.6,1844.53z"/>
			</g>
		</g>
		<g class="st6">
			<g>
				<path class="st7" d="M2673.57,901.48c-1.99-96.87-16.63-180.96-50.64-213.92c-66.75-64.71-317.57,71.1-411.65,166.08
					c-27.33-11.42-57.56-20.99-88.82-28.94c-39.79-10.18-81.19-17.81-120.32-23.45c-35.01-5.12-68.21-8.67-96.78-11.08
					c-10.85-0.9-21.08-1.66-30.41-2.32c-29.32-1.94-50.55-2.51-58.93-2.51c-8.48,0-29.94,0.62-59.54,2.56
					c-33.87,2.27-78.49,6.3-126.57,13.31c-39.13,5.68-80.53,13.31-120.32,23.45c-31.26,8.01-61.49,17.57-88.82,28.99
					c-94.12-94.98-344.9-230.79-411.6-166.08c-34.01,32.97-48.7,117-50.69,213.97c-2.46-117.53,10.8-226.57,50.69-265.23
					c66.7-64.71,317.48,71.1,411.6,166.08c27.33-11.42,57.56-20.98,88.82-28.99c39.79-10.14,81.19-17.76,120.32-23.45
					c48.08-7.01,92.7-11.04,126.57-13.31c29.61-1.94,51.07-2.56,59.54-2.56c8.38,0,29.61,0.57,58.93,2.51
					c9.33,0.66,19.56,1.42,30.41,2.32c28.56,2.42,61.77,5.97,96.78,11.08c39.13,5.64,80.53,13.26,120.32,23.45
					c31.26,7.96,61.49,17.53,88.82,28.94c94.08-94.98,344.9-230.79,411.65-166.08C2662.82,674.96,2676.03,783.96,2673.57,901.48z"/>
			</g>
		</g>
		<g>
			<g>
				<g>
					<path class="st7" d="M928.73,1869.07c5.64-14.16,8.24-23.59,9.38-28.42c0.33-1.66-1.04-3.03-2.42-2.37
						c-16.77,8.24-93.89,44.05-98.25,6.25c-0.76-6.49,1.94-17.01,6.44-30.41c75.13-32.88,176.27-68.36,287.87-83.8
						C1131.76,1730.32,1032.04,1788.97,928.73,1869.07z"/>
				</g>
			</g>
			<g>
				<g>
					<path class="st7" d="M1176.14,1883.09c-1.9,2.23-58.6,69.4-119.8,158.6c-2.61-2.79-5.12-5.59-7.58-8.43
						c-3.79-5.02-7.86-10.23-12.13-15.49c-3.79-4.69-7.72-9.33-11.75-13.83c0.33,0.47,0.71,0.99,1.04,1.47l-1.28-1.66
						c0.05,0.05,0.14,0.09,0.19,0.14c-4.55-5.02-9.28-9.85-14.07-14.16C1058.43,1952.44,1114.14,1914.78,1176.14,1883.09z"/>
				</g>
			</g>
			<g>
				<g>
					<path class="st7" d="M1117.93,1572.87c0,0-103.6,13.26-222.4,42.96c6.02-31.74,10.89-56.84,14.83-76.65
						C974.25,1543.31,1045.69,1553.11,1117.93,1572.87z"/>
				</g>
			</g>
			<g>
				<g>
					<path class="st7" d="M2794.6,1844.53c-4.31,37.8-81.43,1.99-98.25-6.25c-1.33-0.66-2.8,0.71-2.42,2.37
						c0.99,4.07,2.98,11.37,6.92,22.03c-100.28-76.83-194.74-132.35-194.74-132.35c108.24,14.97,206.63,48.84,281,80.81v0.05
						C2792.18,1825.97,2795.41,1837.57,2794.6,1844.53z"/>
				</g>
			</g>
			<g>
				<g>
					<path class="st7" d="M2623.97,1987.31c-5.64,4.88-11.23,10.52-16.58,16.44l-0.05,0.05l-0.19,0.14l-1.14,1.52
						c0.28-0.43,0.62-0.85,0.9-1.28c-4.59,5.12-9.05,10.47-13.31,15.77c-3.6,4.55-7.11,9-10.33,13.31c-1.37,1.61-2.8,3.17-4.31,4.74
						c-60.21-87.4-115.39-152.72-117.24-154.9C2522.41,1914.07,2576.98,1950.79,2623.97,1987.31z"/>
				</g>
			</g>
			<g>
				<g>
					<path class="st7" d="M2736.19,1614.27c-116.25-28.56-216.25-41.4-216.25-41.4c70.06-19.18,139.41-28.94,201.8-33.25
						C2725.63,1558.99,2730.37,1583.52,2736.19,1614.27z"/>
				</g>
			</g>
		</g>
		<g class="st8">
			<g>
				<path class="st4" d="M2710.14,1885.27c13.08,28.94,23.69,51.4,17.76,66.6c-6.3,16.11-32.5,22.36-65.18,18.66
					c-12.65-1.42-25.96,5.78-38.75,16.77c-5.64,4.88-11.23,10.52-16.58,16.44l-0.05,0.05l-0.19,0.14l-1.14,1.52
					c0.28-0.43,0.62-0.85,0.9-1.28c-4.59,5.12-9.05,10.47-13.31,15.77c-3.6,4.55-7.11,9-10.33,13.31c-1.37,1.61-2.8,3.17-4.31,4.74
					c-28.14,31.6-59.83,59.73-94.22,84.75c-46.57,32.73-97.92,58.55-152.06,78.78v-0.38c0,0-74.28,27.38-184.13,52.53
					c0,0-98.15,20.99-187.87,32.59c0,0-68.64,8.15-144.15,8.15c-75.41,0-145.24-8.15-145.24-8.15
					c-89.67-11.61-187.87-32.59-187.87-32.59c-109.8-25.15-184.13-52.53-184.13-52.53v0.38c-54.14-20.23-105.49-46.04-152.06-78.78
					c-33.02-24.02-63.48-50.92-90.9-81.05c-2.61-2.79-5.12-5.59-7.58-8.43c-3.79-5.02-7.86-10.23-12.13-15.49
					c-3.79-4.69-7.72-9.33-11.75-13.83c0.33,0.47,0.71,0.99,1.04,1.47l-1.28-1.66c0.05,0.05,0.14,0.09,0.19,0.14
					c-4.55-5.02-9.28-9.85-14.07-14.16c-13.6-12.32-27.9-20.75-41.45-19.18c-32.64,3.7-58.88-2.56-65.18-18.66
					c-5.92-15.21,4.74-37.66,17.72-66.6c2.65-5.97,4.93-11.37,6.87-16.2c0.47-1.14,0.9-2.23,1.33-3.32
					c10.89,2.46,24.4,2.8,39.27,1.14c13.55-1.56,27.85,6.87,41.45,19.18c4.78,4.31,9.52,9.14,14.07,14.16
					c-0.05-0.05-0.14-0.09-0.19-0.14l1.28,1.66c-0.33-0.47-0.71-0.99-1.04-1.47c4.03,4.5,7.96,9.14,11.75,13.83
					c4.26,5.26,8.34,10.47,12.13,15.49c2.46,2.84,4.97,5.64,7.58,8.43c27.43,30.13,57.89,57.03,90.9,81.05
					c46.57,32.73,97.92,58.55,152.06,78.78v-0.38c0,0,74.32,27.38,184.13,52.53c0,0,98.2,20.99,187.87,32.59
					c0,0,69.82,8.15,145.24,8.15c75.51,0,144.15-8.15,144.15-8.15c89.72-11.61,187.87-32.59,187.87-32.59
					c109.85-25.15,184.13-52.53,184.13-52.53v0.38c54.14-20.23,105.49-46.04,152.06-78.78c34.39-25.01,66.08-53.15,94.22-84.75
					c1.52-1.56,2.94-3.13,4.31-4.74c3.22-4.31,6.73-8.76,10.33-13.31c4.26-5.31,8.72-10.66,13.31-15.77
					c-0.28,0.43-0.62,0.85-0.9,1.28l1.14-1.52l0.19-0.14l0.05-0.05c5.35-5.92,10.94-11.56,16.58-16.44
					c12.79-10.99,26.1-18.19,38.75-16.77c14.87,1.66,28.37,1.33,39.27-1.14C2704.17,1871.39,2706.82,1877.88,2710.14,1885.27z"/>
			</g>
		</g>
		<g>
			<g>
				<path class="st7" d="M1805.55,1048.69c-15.45-89.73-43.51-255.25-48.37-301.26c-0.62-5.88,3.79-11.09,9.69-11.44
					c24.22-1.43,41.7-1.91,49.15-1.91c7.36,0,24.61,0.44,48.54,1.86c5.9,0.35,10.31,5.57,9.69,11.44
					c-4.85,46-32.89,211.57-48.33,301.31C1823.95,1060.14,1807.52,1060.14,1805.55,1048.69z"/>
			</g>
		</g>
		<g>
			<g>
				<path class="st7" d="M2116.77,785.47l-97.07,205.1c-4.74,10.02-19.79,6.57-19.69-4.52l2.02-223.62
					c0.06-6.47,5.97-11.3,12.32-10.06l95.05,18.52C2116.02,772.19,2119.66,779.37,2116.77,785.47z"/>
			</g>
		</g>
		<g>
			<g>
				<path class="st7" d="M1612.35,990.57l-97.07-205.14c-2.89-6.1,0.75-13.29,7.37-14.58l95.05-18.52
					c6.35-1.24,12.26,3.59,12.32,10.06l2.02,223.66C1632.14,997.14,1617.09,1000.59,1612.35,990.57z"/>
			</g>
		</g>
		<g class="st8">
			<g>
				<g>
					<path class="st10" d="M1026.12,2005.57l22.46,27.46C1040.82,2024.17,1033.31,2015.05,1026.12,2005.57z"/>
				</g>
			</g>
			<g>
				<g>
					<path class="st10" d="M2583.5,2033.03l22.46-27.46C2598.77,2015.05,2591.21,2024.17,2583.5,2033.03z"/>
				</g>
			</g>
		</g>
		<g class="st8">
			<g>
				<g>
					<path class="st10" d="M1024.87,1915.63c0.42,0.57,0.83,1.15,1.25,1.67l-1.46-1.82
						C1024.71,1915.52,1024.82,1915.57,1024.87,1915.63z"/>
				</g>
			</g>
			<g>
				<g>
					<path class="st10" d="M2607.21,1915.63c0.05-0.05,0.16-0.1,0.21-0.16l-1.46,1.82
						C2606.38,1916.77,2606.79,1916.2,2607.21,1915.63z"/>
				</g>
			</g>
		</g>
		<g>
			<g>
				<path class="st9" d="M1194.74,972.72c-65.81,66.8-107.19,160.18-113.08,149.29c-0.57-1.04-1.15-2.29-1.72-3.75
					c-12.56-30.54-33.45-151.64-33.4-259.55c0.05-17.4,0.52-32.78,1.46-46.32c2.5-36.58,7.97-60.03,14.69-75.04
					c8.34-18.34,27.1-23.97,43.72-17.82c44.19,16.41,169.72,94.58,210.62,144.71C1324.33,873.14,1260.61,905.91,1194.74,972.72z"/>
			</g>
		</g>
		<g>
			<g>
				<path class="st12" d="M1194.74,972.72c-65.81,66.8-107.19,160.18-113.08,149.29c-0.57-1.04-1.15-2.29-1.72-3.75
					c14.64-56.64,55.03-134.91,85.98-191.5c42.31-77.28-16.05-138.66-66.65-157c-17.35-6.31-37.94,20.74-51.28,42.63
					c2.5-36.58,7.97-60.03,14.69-75.04c8.34-18.34,27.1-23.97,43.72-17.82c44.19,16.41,169.72,94.58,210.62,144.71
					C1324.33,873.14,1260.61,905.91,1194.74,972.72z"/>
			</g>
		</g>
		<g>
			<g>
				<path class="st4" d="M1083.23,1141.83c-0.32,0-0.65,0-0.98-0.01c-7.28-0.24-13.74-4.28-17.26-10.81
					c-14.82-27.41-37.46-160.31-37.37-272.3l0,0c0.05-60.34,5.88-102.57,17.82-129.13c11.9-26.24,40.31-37.9,67.56-27.8
					c45.29,16.79,175.13,97.03,218.75,150.45c3.72,4.56,5.39,10.32,4.69,16.21c-1.55,13-12.51,21.32-39,41.42
					c-23.61,17.92-55.94,42.45-89.17,76.17c-36.55,37.09-65.63,83.29-84.88,113.85C1103.33,1131.71,1096.96,1141.83,1083.23,1141.83
					z M1098.32,1112.99h0.05H1098.32z M1065.51,858.73c-0.06,84.61,13.17,176.55,23.86,224.03c0.65-1.04,1.3-2.07,1.94-3.08
					c20.12-31.95,50.52-80.24,89.96-120.26c35.14-35.66,70.11-62.2,93.25-79.76c6.32-4.79,13.11-9.94,18.26-14.11
					c-46.42-47.36-155.89-114.5-192.96-128.24c-6.73-2.5-15.49-1.75-19.85,7.87C1070.43,766.39,1065.55,804.62,1065.51,858.73
					L1065.51,858.73z"/>
			</g>
		</g>
		<g>
			<g>
				<path class="st9" d="M2432.16,972.72c65.81,66.8,107.19,160.18,113.08,149.29c0.57-1.04,1.15-2.29,1.72-3.75
					c12.56-30.54,33.45-151.64,33.4-259.55c-0.05-17.4-0.52-32.78-1.46-46.32c-2.5-36.58-7.97-60.03-14.69-75.04
					c-8.34-18.34-27.1-23.97-43.72-17.82c-44.19,16.41-169.72,94.58-210.62,144.71C2302.56,873.14,2366.29,905.91,2432.16,972.72z"
					/>
			</g>
		</g>
		<g>
			<g>
				<path class="st12" d="M2432.16,972.72c65.81,66.8,107.19,160.18,113.08,149.29c0.57-1.04,1.15-2.29,1.72-3.75
					c-14.64-56.64-55.03-134.91-85.98-191.5c-42.31-77.28,16.05-138.66,66.65-157c17.35-6.31,37.94,20.74,51.28,42.63
					c-2.5-36.58-7.97-60.03-14.69-75.04c-8.34-18.34-27.1-23.97-43.72-17.82c-44.19,16.41-169.72,94.58-210.62,144.71
					C2302.56,873.14,2366.29,905.91,2432.16,972.72z"/>
			</g>
		</g>
		<g>
			<g>
				<path class="st4" d="M2543.68,1141.83c-13.74,0-20.11-10.12-40.16-41.96c-19.25-30.57-48.33-76.76-84.88-113.85
					c-33.23-33.72-65.56-58.26-89.17-76.17c-26.49-20.1-37.45-28.42-39-41.42c-0.7-5.89,0.96-11.65,4.69-16.21
					c43.63-53.43,173.47-133.67,218.75-150.45c27.27-10.1,55.66,1.57,67.53,27.75c11.97,26.6,17.8,68.84,17.85,129.18l0,0
					c0.09,112-22.55,244.89-37.37,272.3c-3.53,6.52-9.98,10.56-17.26,10.81C2544.32,1141.82,2544,1141.83,2543.68,1141.83z
					 M2334.12,865.55c5.15,4.17,11.94,9.33,18.26,14.12c23.14,17.56,58.11,44.1,93.25,79.76c39.44,40.02,69.84,88.31,89.96,120.26
					c0.64,1.02,1.29,2.05,1.94,3.09c10.69-47.49,23.92-139.42,23.86-224.03l0,0c-0.04-54.12-4.92-92.34-14.49-113.61
					c-4.33-9.56-13.09-10.31-19.82-7.81C2490.02,751.05,2380.54,818.19,2334.12,865.55z"/>
			</g>
		</g>
		<g>
			<g>
				<g>
					<path class="st4" d="M1670.11,2295.67c-128.6-8.84-255.56-33.72-377.34-76.72c0,0,25.57-17.83,25.57-17.83l0,0.38l0.03,27.36
						c-57.64-20.57-114.39-45.34-165.85-79.41c-43.59-28.71-83.06-63.75-117.67-102.79c0,0-0.41-0.46-0.41-0.46l-0.21-0.23
						c1.48,1.43,2.88,2.92,4.74,3.82c0,0-4.94-4.05-4.94-4.05l-24.64-30.17l0.88,1.09l-0.19-0.16l29.55-24.98l24.14,29.47
						l-30.43,24.03c-14.41-18.27-28.06-36.71-46.43-49.34c-5.75-3.86-10.69-5.83-14.63-5.69c-2.83-0.07-5.71,0.55-8.57,0.65
						c-32.53,3.3-80.92-6.46-80.84-47.89c-0.18-15.77,6.15-30.51,11.38-43.55c8.62-20.42,18.51-39.58,24.11-60.83
						c0,0,0.32-1.25,0.32-1.25l0.15-0.61l0.07-0.31l-0.22,1.07c-2.31,13.72,12.76,25.36,25.69,18.7c0,0-0.75,0.37-0.75,0.37
						l-1.49,0.73l-2.97,1.42c-35.91,16.29-109.49,47.53-121.4-11.44c-1.49-17.59,5.04-30.45,9.3-44.96
						c12.23-34.9,25.64-68.25,32.84-104.04c8.54-44.5,16.35-89.74,25.12-134.18c7.18-36.17,15.84-82.57,24.36-113.83
						c20.98-76.85,45.33-151.99,80.55-224.03c0,0-0.86,16.35-0.86,16.35c-48.21-133.5-81.95-475.97-12.08-598.54
						c4.73-8.02,10.93-15.7,17.57-22.71c0,0,2.3-1.94,2.3-1.94l4.69-3.8c40.18-28.19,94.64-15.79,137.14-3.81
						c104.53,33.28,218.06,99.68,297.38,175.72c0,0-23.62-4.72-23.62-4.72c32.48-13.37,65.65-23.37,99-31.77
						c66.49-16.52,134.06-26.11,202.02-32.63c34.44-2.98,67.62-5.54,102.56-6.03c34.94,0.38,68.13,2.99,102.57,5.97
						c102.34,10.2,204.81,25.71,301.06,64.35c0,0-23.75,4.75-23.75,4.75c33.59-33.21,70.87-60.31,110.1-85.66
						c72.6-45.9,245.78-142.12,324.61-86.33c53.7,42.15,60.71,156.1,63.57,219.08c2.84,91.66-4.12,182.66-18.41,273.1
						c-7.66,45.92-16.48,90.68-32.52,135.08c0,0-0.88-16.59-0.88-16.59c35.25,72.06,59.62,147.21,80.61,224.08
						c3.94,14.65,6.18,24.48,9.6,40.35c13.15,63.98,26.11,131.73,37.65,195.88c4.04,23.58,10.6,46.09,18.46,69.02
						c5.22,15.36,11.03,30.6,16.66,46.76c7.38,20.21,17.5,49.8-1.71,68.29c-28.87,26.66-84.07,0.66-113.94-12.78
						c0,0-1.49-0.73-1.49-0.73l-0.75-0.37c2.16,1.1,5.29,1.97,8.49,1.89c5.94-0.01,11.3-3.12,14.54-7.46
						c3.79-4.15,3.79-11.09,3.13-14.39c0,0,0.15,0.61,0.15,0.61l0.32,1.25l1.47,5.2c13.14,46.9,70.93,119.31-3.16,143.9
						c-17.99,5.18-34.23,4.74-51.9,3.05c-0.61,0.11-1.16,0.02-1.78-0.01c-3.02,0.22-8.1,2.16-13.34,5.69
						c-18.36,12.59-31.92,30.99-46.3,49.24c0,0-31.2-24.63-31.2-24.63l24.13-29.48l30.31,25.62c-0.65,0.61,0.78-0.96,0.72-0.96
						c0,0-24.65,30.21-24.65,30.21l-5.07,4.15c1.87-0.94,3.45-2.4,4.87-3.92c0,0-0.21,0.23-0.21,0.23
						c-68.79,79.48-160.26,137.58-258.45,173.29c0,0-26.41,9.84-26.41,9.84l0.02-28.16l0-0.38l26.32,18.35
						c-91.63,32.16-185.36,55.59-281.64,67.35c-31.77,4.23-63.75,7.39-95.88,8.85c-11.7,0.19-13.57-16.15-2.47-18.78
						c0.04,0,92.99-20.42,93.03-20.43c54.21-11.9,131.18-29.42,183.77-45.31c39.14-10.88,78.21-24,115.96-37.78
						c0,0,0.02,27.76,0.02,27.76l0,0.38l-26.39-18.32c52.24-19.55,102.14-44.61,147.49-76.48c34.05-24.86,65.8-53.3,93.67-84.98
						c1.84-2.26,4.08-4.41,6.6-5.88c0,0-5.07,4.15-5.07,4.15l22.8-28.02l0.91-1.12l0.18-0.16l30.31,25.62l-24.08,29.52l-31.2-24.63
						c22.76-28.11,48.11-65.54,88.39-70.65c8.58-0.38,17.4,1.32,25.94,0.99c6.93-0.14,13.82-0.85,19.1-2.52
						c5.53-1.48,8.48-4.28,8.3-4.4c1.43-9.56-4.18-19.68-7.98-30.01c-9.32-21.42-20.05-43.26-26.08-66.23
						c-6.96-20.13,13.31-37.86,32.06-27.22c0,0,2.63,1.25,2.63,1.25l5.32,2.44c18.69,7.72,39.75,17.46,59.65,16.19
						c1.66-0.29,1.58-0.69,0.61,0.22c-0.99,0.99-1.12,2.12-0.9,0.99c-1.02-7.72-4.1-17.95-7.44-27.06
						c-12.62-35.31-26.85-71.68-34.44-109.12c-14.07-70.74-29.29-161.97-45.8-231.91c-20.65-78.29-46.04-157.24-81.57-229.73
						c0,0-4-8.07-4-8.07l3.13-8.53c44.32-123.42,75.8-449.16,14.33-562.39c-2.61-3.51-4.81-7.8-7.68-10.48l-2-2.3l-0.98-1.15
						c-1.83-1.01-2.91-2.75-4.86-3.6c-1.61-0.72-2.85-1.82-4.66-2.44l-5.4-1.97c-74.29-15.91-200.38,54.2-263.84,94.28
						c-41.23,26.5-79.82,55.84-112.92,90.11c-64.31-27.57-133.74-43.41-203.14-54.11c-64.91-9.95-131.65-16.31-197.2-17.76
						c-32.25,0.47-66.11,2.79-98.58,5.64c-97.64,9.49-197.09,24.27-288.38,60.62c0,0-13.36,5.47-13.36,5.47
						c-63.66-64.79-145.64-115.09-228.5-152.78c-40.5-17.53-123.17-49.97-160.49-25.82c-0.61,0.52-1.23,1.02-1.87,1.51l-0.98,0.71
						l-0.99,1.15l-2.01,2.31c-10.74,12.42-17.06,28.99-22.17,44.67c-38.69,132.72-16.38,405.94,31.76,536.85
						c-28.85,56.81-50.71,118.25-69.31,179.61c-6.03,19.15-11.52,40.12-16.6,59.58c-3.4,13.16-7.44,34-10.35,47.39
						c-9.73,46.81-25.01,129.46-33.85,176.59c-8.17,47.14-29.39,91.95-42.3,136.97c-0.87,3.28-0.76,5.69-0.93,5.81
						c0.22,1.19,0.12,0.17-0.78-0.74c-0.89-0.84-0.89-0.41,0.82-0.11c8.95,1.06,17.83-1.29,27.54-3.96
						c12.6-3.74,25.6-9.04,37.69-14.69c4.7-2.22,8.56-4.56,14.38-4.4c14.48,0.01,24.32,15.16,20.16,28.1
						c-7.19,30.51-25.1,58.96-33.78,88.29c-0.72,2.98-1.12,5.7-1.1,7.5c0.03,1.77,0.41,2.54,0.41,2.54
						c-0.08,0.29,2.98,3.11,8.56,4.62c10.67,3.11,24.48,2.98,36.14,1.7c3.03-0.17,6.04-0.27,9-0.15
						c39.98,5.1,65.43,42.44,88.04,70.47c0,0-30.43,24.03-30.43,24.03l-24.08-29.52l29.55-24.98l0.18,0.16l0.88,1.09l22.81,28.05
						l-4.94-4.05c4.39,2.49,7.59,7.34,11.06,10.93c63.92,71.75,146.71,123.4,236.75,156.49c0,0-25.64,17.8-25.64,17.8l0-0.38
						l0.03-27.05c37.55,13.76,76.65,26.84,115.18,37.88c60.78,17.98,121.72,32.36,183.83,45.44c31.01,6.74,62.09,13.1,93.19,19.5
						C1683.95,2279.24,1681.78,2296.26,1670.11,2295.67L1670.11,2295.67z"/>
				</g>
			</g>
		</g>
		<g>
			<g>
				<ellipse class="st13" cx="2307.41" cy="1893.42" rx="90.99" ry="43.68"/>
			</g>
		</g>
		<g>
			<g>
				<ellipse class="st13" cx="1324.02" cy="1893.42" rx="90.99" ry="43.68"/>
			</g>
		</g>
		<g>
			<g>
				<path class="st7" d="M1679.64,1825.56c0,0,23.88,62.65,79.8,48.19c63.65-16.46,56-92.36,56-92.36"/>
			</g>
		</g>
		<g>
			<g>
				<path class="st7" d="M1953.58,1825.56c0,0-23.88,62.65-79.8,48.19c-63.65-16.46-56-92.36-56-92.36"/>
			</g>
		</g>
		<g>
			<g>
				<g>
					<ellipse class="st4" cx="1480.75" cy="1619.54" rx="111.37" ry="178.17"/>
				</g>
			</g>
			<g>
				<g>
					
						<ellipse transform="matrix(0.1053 -0.9944 0.9944 0.1053 -215.2515 2916.5242)" class="st7" cx="1513.16" cy="1577.88" rx="56.91" ry="35.97"/>
				</g>
			</g>
			<g class="st14">
				<g>
					
						<ellipse transform="matrix(0.899 -0.4379 0.4379 0.899 -608.7431 804.2281)" class="st7" cx="1439.66" cy="1722.22" rx="21.17" ry="36.81"/>
				</g>
			</g>
		</g>
		<g>
			<g>
				<g>
					<ellipse class="st4" cx="2149.43" cy="1619.54" rx="111.37" ry="178.17"/>
				</g>
			</g>
			<g>
				<g>
					
						<ellipse transform="matrix(0.9944 -0.1053 0.1053 0.9944 -154.3448 231.6317)" class="st7" cx="2117.01" cy="1577.88" rx="35.97" ry="56.91"/>
				</g>
			</g>
			<g class="st14">
				<g>
					
						<ellipse transform="matrix(0.4379 -0.899 0.899 0.4379 -316.9714 2937.5098)" class="st7" cx="2190.51" cy="1722.22" rx="36.81" ry="21.17"/>
				</g>
			</g>
		</g>
		<g class="st8">
			<g>
				<path class="st4" d="M1674.56,3093.28c-56.23,44.48-195.21,36.19-290.19-75.79c-38.09-44.86-69.07-153.76-84.84-235.24
					l212.5-192.7c12.46,89.25,57.84,158.12,104.59,216.25C1707.53,2918.77,1803.83,2991.1,1674.56,3093.28z"/>
			</g>
		</g>
		<g class="st8">
			<g>
				<path class="st4" d="M1904.25,3093.28c56.23,44.48,195.21,36.19,290.19-75.79c38.09-44.86,69.07-153.76,84.84-235.24
					l-212.5-192.7c-12.46,89.25-57.84,158.12-104.59,216.25C1871.28,2918.77,1774.97,2991.1,1904.25,3093.28z"/>
			</g>
		</g>
		<g>
			<g>
				<path class="st5" d="M1674.56,3012.75c-56.23,44.48-195.21,36.19-290.19-75.79c-38.09-44.86-69.07-106.39-84.84-187.87
					l212.5-240.07c12.46,89.25,57.84,158.12,104.59,216.25C1707.53,2838.24,1803.83,2910.57,1674.56,3012.75z"/>
			</g>
		</g>
		<g>
			<g>
				<path class="st7" d="M1674.56,3012.75c-56.23,44.48-195.21,36.19-290.19-75.79c13.99-91.32,131.93-200.9,232.26-211.7
					C1707.53,2838.24,1803.83,2910.57,1674.56,3012.75z"/>
			</g>
		</g>
		<g class="st8">
			<g>
				<path class="st4" d="M1674.57,3012.74c-56.23,44.48-195.21,36.19-290.19-75.79c-31.79-37.47-58.65-86.55-75.79-149.12
					c14.26,30.41,31.26,56.47,49.93,78.45c94.98,111.98,233.96,120.27,290.19,75.79c45.33-35.81,62.91-67.98,62.72-99.53
					C1748.33,2898.86,1753.68,2950.21,1674.57,3012.74z"/>
			</g>
		</g>
		<g>
			<g>
				<path class="st4" d="M1526.09,2507.06c18.25,90.4,69.56,166.22,129.93,235.15c79.37,91.36,160.73,176.91,40.72,279.23
					c-34.96,31.9-85.25,40.47-130.83,36c-151.67-14.35-269.85-158.94-275.7-306.57c-0.32-10.64,14.47-13.79,18.46-3.97
					c8.82,21.86,15.92,43.71,25.08,64.6c32.1,82.15,88.7,158.47,173.31,189.81c47.29,17.93,106.05,25.49,150.64-2.07
					c7.58-5.27,17.08-13.56,24.16-20.36c31.35-29.34,45.89-62.94,25.46-103c-19.5-39.24-52.62-73.81-81.09-108.44
					c-61.69-72.01-121.94-157.91-128.31-256.43C1496.92,2493.61,1522.19,2489.75,1526.09,2507.06L1526.09,2507.06z"/>
			</g>
		</g>
		<g>
			<g>
				<path class="st5" d="M1904.25,3012.75c56.23,44.48,195.21,36.19,290.19-75.79c38.09-44.86,69.07-106.39,84.84-187.87
					l-212.5-240.07c-12.46,89.25-57.84,158.12-104.59,216.25C1871.28,2838.24,1774.97,2910.57,1904.25,3012.75z"/>
			</g>
		</g>
		<g>
			<g>
				<path class="st7" d="M1904.25,3012.75c56.23,44.48,195.21,36.19,290.19-75.79c-13.99-91.32-131.93-200.9-232.26-211.7
					C1871.28,2838.24,1774.97,2910.57,1904.25,3012.75z"/>
			</g>
		</g>
		<g>
			<g>
				<path class="st4" d="M2080.87,2511c-7.93,124.34-98.02,219.82-173.06,310.13c-51.83,64.97-69.74,109.65,1.15,168.63
					c43.84,38.88,111.5,30.94,162.79,11.55c84.61-31.35,141.22-107.66,173.31-189.82c9.11-20.77,16.17-42.47,24.93-64.22
					c1.83-5.1,7.58-7.71,12.61-5.66c3.85,1.55,6.14,5.34,5.99,9.26c-1.91,48.27-15.54,96.45-39.32,139.74
					c-46.98,87.66-134.48,157.65-236.38,166.83c-74.69,6.85-126.38-17.84-170.29-78.74c-45.9-65.33-9.7-129.44,34.29-182.37
					c44.17-53.67,93.33-104.76,127.29-164.43c22.71-38.94,39.23-80.71,48.55-124.88C2056.55,2490.06,2081.87,2493.3,2080.87,2511
					L2080.87,2511z"/>
			</g>
		</g>
		<g>
			<g>
				<path class="st4" d="M1921.14,1828.67c0,0-2.09,47.56-19.38,95.69c-3.69,10.33-8.81,19.28-14.92,26.91
					c-35.01,43.44-103.69,43.44-138.7,0c-6.11-7.63-11.23-16.58-14.92-26.91c-17.24-48.13-19.37-95.69-19.37-95.69H1921.14z"/>
			</g>
		</g>
		<g>
			<g>
				<path class="st15" d="M1886.84,1951.26c-35.01,43.44-103.69,43.44-138.7,0C1783.1,1907.78,1851.88,1907.78,1886.84,1951.26z"/>
			</g>
		</g>
		<g>
			<g>
				<path class="st4" d="M1817.5,2003.29c-46.57,0-86.85-28.41-102.61-72.37c-18.03-50.31-20.41-99.34-20.5-101.4
					c-0.48-10.74,7.84-19.84,18.58-20.32c10.69-0.36,19.84,7.84,20.32,18.58c0.02,0.43,2.27,45.41,18.25,90
					c12.31,34.34,42.14,46.57,65.95,46.57s53.65-12.24,65.95-46.57c15.99-44.59,18.23-89.56,18.25-90.01
					c0.5-10.74,9.56-19.11,20.34-18.56c10.73,0.49,19.05,9.58,18.57,20.31c-0.09,2.06-2.46,51.09-20.5,101.4
					C1904.35,1974.88,1864.07,2003.29,1817.5,2003.29z"/>
			</g>
		</g>
		<g>
			<g class="st11">
				<g>
					<path class="st10" d="M1953.58,1851.25c0,0-23.88,62.65-79.8,48.19c-63.65-16.46-55-47.09-57.76-47.09s7.05,30.62-56.59,47.09
						c-55.91,14.46-79.8-48.19-79.8-48.19s-1.14-155.27,136.4-155.27S1953.58,1851.25,1953.58,1851.25z"/>
				</g>
			</g>
			<g>
				<g>
					<path class="st7" d="M1953.58,1825.56c0,0-23.88,62.65-79.8,48.19c-63.65-16.46-56-92.36-56-92.36h-2.35
						c0,0,7.65,75.9-56,92.36c-55.91,14.46-79.8-48.19-79.8-48.19s-81.29-155.27,136.4-155.27S1953.58,1825.56,1953.58,1825.56z"/>
				</g>
			</g>
			<g class="st11">
				<g>
					<path class="st4" d="M1952.69,1827.57c-4.61,10.56-28.99,59.07-78.9,46.18c-63.68-16.46-56.02-92.36-56.02-92.36h-2.33
						c0,0,7.61,75.9-56.02,92.36c-49.91,12.89-74.29-35.62-78.9-46.18c15.74,10.61,36.34,16.72,62.23,10.04
						c82.21-21.28,72.32-119.28,72.32-119.28h3.05c0,0-9.89,98,72.32,119.28C1916.35,1844.29,1936.96,1838.18,1952.69,1827.57z"/>
				</g>
			</g>
			<g>
				<g>
					<path class="st4" d="M1688.49,1822.18c15.79,26.5,41.44,48.26,73.29,35.51c31.26-9.8,43.02-46.16,44.26-76.19
						c0.28-5.23,4.75-9.23,9.98-8.95c11.3,0.93,9.51,15.25,10.26,23.12c0.22,15.38-1.89,30.47-8.21,45
						c-9.86,25.11-35.11,44.58-62.19,48.47c-33.58,6.96-66.34-16.01-79.54-45.72c-3.45-7.66-11.37-22.14,0.87-26.24
						C1681.82,1815.82,1686.4,1818.15,1688.49,1822.18L1688.49,1822.18z"/>
				</g>
			</g>
			<g>
				<g>
					<path class="st4" d="M1962.43,1828.93c-12.55,44.19-55.62,74.27-100.94,55.92c-42.58-14.24-60.41-63.19-53.13-104.42
						c1.96-11.03,18.17-10.02,18.81,1.07c1.24,30.02,13,66.4,44.26,76.19c32.32,12.93,58.09-9.63,73.89-36.46
						C1951.11,1812.01,1965.49,1818.58,1962.43,1828.93L1962.43,1828.93z"/>
				</g>
			</g>
			<g>
				<g>
					<g>
						<path class="st4" d="M1893.27,1731.95c0,17.95-23.42,43.47-44.92,54.24c-22.49,11.27-47.68,11.27-70.17,0
							c-21.5-10.78-44.92-36.29-44.92-54.24C1733.27,1699.5,1893.27,1699.5,1893.27,1731.95z"/>
					</g>
				</g>
				<g class="st6">
					<g>
						<path class="st7" d="M1844.99,1730.98c0,5.18-9.29,9.75-17.81,12.86c-8.92,3.25-18.91,3.25-27.82,0
							c-8.52-3.11-17.81-7.68-17.81-12.86C1781.55,1715.36,1844.99,1715.36,1844.99,1730.98z"/>
					</g>
				</g>
			</g>
			<g>
				<g>
					<path class="st4" d="M1412.18,1273.81c34.88-34.51,94.1-42.14,134.61-13.06c5.69,3.7,10.45,8.52,15.47,12.99
						c6.2,5.79,6.53,15.51,0.74,21.71c-4.73,5.06-12.08,6.21-17.99,3.31c-3.05-1.5-6.21-3.06-9.11-4.67
						c-10.54-6.03-22.21-9.91-34.07-11.87c-25.19-3.61-50.56,5.6-73.04,16.64C1413.22,1305.3,1400.3,1285.46,1412.18,1273.81
						L1412.18,1273.81z"/>
				</g>
			</g>
			<g>
				<g>
					<path class="st4" d="M2200.28,1297.61c-38.14-19.72-73.62-22.72-111,0.07c-7.87,4.99-18.61,2.69-22.76-5.92
						c-6.73-14.23,9.33-23.52,18.77-31c17.28-11.93,38.58-18.69,59.74-18.06c28.23,0.66,54.65,11.71,74.87,31.12
						C2232.86,1287.69,2216.45,1306.95,2200.28,1297.61L2200.28,1297.61z"/>
				</g>
			</g>
		</g>
		<g>
			<g>
				<path class="st4" d="M1560.16,2982.86c17.58,13.59,39.82,23.93,61.93,26.96c7.43,1.25,14.77,1.01,21.96,0.71
					c27.49,0.15,25.52,40.49-1.9,37.9c-28.18-3.33-54.4-15.74-76.05-33.47c-7.03-5.8-13.26-11.65-19.58-18.96
					c-3.42-3.96-2.99-9.94,0.97-13.36C1551.21,2979.41,1556.64,2979.69,1560.16,2982.86L1560.16,2982.86z"/>
			</g>
		</g>
		<g>
			<g>
				<path class="st4" d="M1615.45,2912.99c27.84,19.51,62.05,36.72,96.63,35.3c27.35-0.26,26.12,39.87-1.21,37.88
					c-32.28-3.7-60.71-19.44-85.58-38.96c-7.94-6.31-15.25-12.71-22.6-20.21c-3.66-3.74-3.6-9.75,0.14-13.41
					C1606.32,2910.16,1611.76,2910.02,1615.45,2912.99L1615.45,2912.99z"/>
			</g>
		</g>
		<g>
			<g>
				<path class="st4" d="M2036.51,2996c-24.69,28.06-58.19,47.85-95.63,52.43c-25.02,2.78-30.21-33.41-5.37-37.73
					c8.44-0.45,16.77,0.77,25.42-0.89c22.1-3.03,44.35-13.37,61.93-26.96C2031.69,2974.97,2044.12,2987.01,2036.51,2996
					L2036.51,2996z"/>
			</g>
		</g>
		<g>
			<g>
				<path class="st4" d="M1980.34,2927c-29.73,29.32-65.62,53.94-108.18,59.17c-25.03,2.24-29.43-33.99-4.54-37.77
					c17.6,0.7,35.6-2.44,52.45-9.3c16.64-6.61,33.48-15.89,47.91-26.4C1977.32,2905.99,1988.32,2918.78,1980.34,2927L1980.34,2927z"
					/>
			</g>
		</g>
		<g class="st8">
			<g>
				<path class="st4" d="M1904.26,3012.74c56.23,44.48,195.21,36.19,290.19-75.79c31.79-37.47,58.65-86.55,75.79-149.12
					c-14.26,30.41-31.26,56.47-49.93,78.45c-94.98,111.98-233.96,120.27-290.19,75.79c-45.33-35.81-62.91-67.98-62.72-99.53
					C1830.5,2898.86,1825.15,2950.21,1904.26,3012.74z"/>
			</g>
		</g>
	</g>
	<g>
		<g>
			<g>
				<path class="st7" d="M2860.47,1300.28c-29.84-30.85-50.21-71.33-55.65-117.24c-13.2-111.43,66.44-212.46,177.87-225.66
					s212.46,66.44,225.66,177.87c13.2,111.43-66.44,212.46-177.87,225.66c-30.99,3.67-61.18,0.14-88.89-9.24l-87.15,41.11
					L2860.47,1300.28z"/>
			</g>
		</g>
		<g class="st6">
			<g>
				<g>
					<path class="st7" d="M2987.29,996.19c-104.09,12.33-180.41,101.3-179.26,203.8c-1.59-6.98-2.87-14.1-3.73-21.38
						c-13.2-111.43,66.44-212.46,177.87-225.66c111.43-13.2,212.46,66.44,225.66,177.87c0.87,7.3,1.31,14.56,1.39,21.75
						C3186.44,1052.59,3091.42,983.85,2987.29,996.19z"/>
				</g>
			</g>
		</g>
		<g>
			<g>
				<path class="st4" d="M2835.37,1420.8l7.45-114.21c-30.67-33.96-49.67-75.82-55.08-121.53
					c-14.29-120.67,72.26-230.47,192.93-244.76c120.65-14.34,230.48,72.26,244.77,192.93c14.29,120.67-72.26,230.47-192.93,244.76
					c-30.47,3.61-60.62,0.96-89.71-7.87L2835.37,1420.8z M3006.72,973.17c-7.27,0-14.61,0.42-22,1.3
					c-101.83,12.06-174.87,104.72-162.81,206.55c4.83,40.74,22.44,77.85,50.93,107.3l5.3,5.48l-4.62,70.96l67.01-31.62l6.58,2.23
					c26.28,8.9,53.65,11.73,81.36,8.46c101.83-12.06,174.87-104.72,162.81-206.55C3180.08,1042.84,3099.57,973.17,3006.72,973.17z"
					/>
			</g>
		</g>
		<g class="st8">
			<g>
				<path class="st4" d="M2858.93,1298.62c64.59,33.78,143.9,37.15,214.06,2.03c77.8-38.95,124.47-115.28,129.26-196.31
					c2.78,9.98,4.84,20.29,6.1,30.9c13.2,111.43-66.44,212.46-177.87,225.66c-30.99,3.67-61.18,0.14-88.89-9.24l-87.15,41.11
					l6.03-92.5C2859.95,1299.74,2859.45,1299.17,2858.93,1298.62z"/>
			</g>
		</g>
		<g>
			<g>
				<path class="st16" d="M2942.33,1102.08L2942.33,1102.08c17.58-17.58,46.09-14.43,63.67,3.15l2.74,2.74l2.74-2.74
					c17.58-17.58,46.09-20.73,63.67-3.15l0,0c17.58,17.58,17.58,46.09,0,63.67l-2.74,2.74l-55.28,55.28
					c-4.64,4.64-12.15,4.64-16.79,0l-55.28-55.28l-2.74-2.74C2924.75,1148.18,2924.75,1119.67,2942.33,1102.08z"/>
			</g>
		</g>
	</g>
</g>
</svg>
